<?xml version="1.0" standalone="no"?><!DOCTYPE svg PUBLIC "-//W3C//DTD SVG 1.1//EN" "http://www.w3.org/Graphics/SVG/1.1/DTD/svg11.dtd"><svg width="28" height="28" viewBox="0 0 28 28" version="1.1" xmlns="http://www.w3.org/2000/svg" xmlns:xlink="http://www.w3.org/1999/xlink"><defs><style type="text/css"><![CDATA[
@font-face {
  font-family: "ifont";
  src: url("//at.alicdn.com/t/font_1442373896_4754455.eot?#iefix") format("embedded-opentype"), url("//at.alicdn.com/t/font_1442373896_4754455.woff") format("woff"), url("//at.alicdn.com/t/font_1442373896_4754455.ttf") format("truetype"), url("//at.alicdn.com/t/font_1442373896_4754455.svg#ifont") format("svg");
}

]]></style></defs><g class="transform-group"><g transform="scale(0.02734375, 0.02734375)"><path d="M989.679671 325.40258C982.580103 318.303013 968.380972 311.203445 954.181837 311.203445L691.497852 311.203445 726.99569 76.917731C726.99569 62.718596 726.99569 48.519464 719.896123 41.419897 712.796555 34.320329 698.59742 27.220762 684.398285 27.220762L535.307377 27.220762C521.108242 27.220762 506.909107 34.320329 499.809543 48.519464L372.017335 311.203445 357.818199 311.203445 357.818199 311.203445C357.818199 275.705611 322.320364 240.207773 286.822529 240.207773L73.835516 240.207773C38.33768 240.207773 2.839845 275.705611 2.839845 311.203445L2.839845 950.164484C2.839845 985.66232 38.33768 1021.160155 73.835516 1021.160155L861.887462 1021.160155C883.186165 1021.160155 904.484868 1006.961021 904.484868 985.66232L996.779238 360.900414C996.779238 346.701283 996.779238 339.601715 989.679671 325.40258L989.679671 325.40258ZM73.835516 950.164484 73.835516 311.203445 286.822529 311.203445 286.822529 311.203445 286.822529 950.164484 73.835516 950.164484 73.835516 950.164484ZM840.588763 950.164484 357.818199 950.164484 357.818199 382.199117 414.614736 382.199117 435.913439 339.601715 556.60608 98.216433 656.000018 98.216433 620.502181 297.00431 606.303049 382.199117 691.497852 382.199117 925.783567 382.199117 840.588763 950.164484 840.588763 950.164484Z" fill="#eb4f38"></path></g></g></svg>